#define www_width 52
#define www_height 52
static unsigned char www_bits[] = {
   0x00, 0x00, 0x00, 0x00, 0x00, 0x00, 0x00, 0x00, 0x00, 0x00, 0x00, 0x00,
   0x00, 0x00, 0xfe, 0xff, 0xff, 0xff, 0xff, 0xff, 0x03, 0x00, 0x00, 0x00,
   0x00, 0x00, 0x00, 0x00, 0xfe, 0xff, 0xff, 0xff, 0xff, 0xff, 0x03, 0x00,
   0x49, 0x92, 0x24, 0x49, 0x00, 0x00, 0x7e, 0x92, 0x24, 0x49, 0x92, 0xff,
   0x03, 0x00, 0x92, 0x24, 0x49, 0x92, 0x01, 0x00, 0x7e, 0x49, 0x92, 0x24,
   0x49, 0xff, 0x03, 0x00, 0x00, 0x00, 0x00, 0x8c, 0x03, 0x00, 0x7e, 0x00,
   0x42, 0x10, 0x43, 0xff, 0x03, 0x00, 0x00, 0x40, 0xd0, 0x20, 0x03, 0x00,
   0x2a, 0x00, 0x42, 0x30, 0x90, 0xab, 0x02, 0x54, 0x00, 0x40, 0x2c, 0x88,
   0x57, 0x01, 0x2a, 0x00, 0x82, 0x63, 0x44, 0xab, 0x02, 0x54, 0x00, 0xc0,
   0x40, 0x42, 0x57, 0x01, 0x2a, 0x00, 0x02, 0xc1, 0x21, 0xab, 0x02, 0x54,
   0x00, 0x02, 0x82, 0x27, 0x57, 0x01, 0x2a, 0x00, 0x02, 0x42, 0x1c, 0xab,
   0x02, 0x54, 0x00, 0x0f, 0x24, 0x70, 0x57, 0x01, 0x2a, 0xc0, 0x78, 0x18,
   0x08, 0xab, 0x02, 0x54, 0x40, 0xa0, 0x08, 0x08, 0x57, 0x01, 0x2a, 0x40,
   0xb8, 0x14, 0x04, 0xab, 0x02, 0x54, 0x80, 0x4f, 0x22, 0x04, 0x57, 0x01,
   0x7e, 0x40, 0x15, 0x40, 0x02, 0xff, 0x03, 0x00, 0x40, 0x15, 0x80, 0x02,
   0x03, 0x00, 0x54, 0x00, 0x05, 0x02, 0x0f, 0x57, 0x01, 0x7e, 0x00, 0x00,
   0x81, 0x30, 0xff, 0x03, 0x00, 0x00, 0x80, 0x00, 0x00, 0x03, 0x00, 0x54,
   0x00, 0x40, 0x00, 0x00, 0x57, 0x01, 0x7e, 0x00, 0x20, 0x28, 0x00, 0xff,
   0x03, 0x00, 0x00, 0x10, 0x14, 0x00, 0x03, 0x00, 0x54, 0x00, 0x08, 0x0a,
   0x00, 0x57, 0x01, 0x7e, 0x00, 0x04, 0x05, 0x00, 0xff, 0x03, 0x00, 0x00,
   0x82, 0x02, 0x00, 0x03, 0x00, 0x54, 0x00, 0x43, 0x21, 0x00, 0x57, 0x01,
   0x7e, 0x80, 0xa4, 0x20, 0x00, 0xff, 0x03, 0x00, 0x00, 0x49, 0x6c, 0x04,
   0x03, 0x00, 0x2a, 0x80, 0x33, 0xaa, 0x0a, 0xab, 0x02, 0x54, 0xc0, 0x16,
   0xaa, 0x02, 0x57, 0x01, 0x2a, 0x60, 0x0b, 0x44, 0x0c, 0xab, 0x02, 0x54,
   0xa0, 0x01, 0x00, 0x00, 0x57, 0x01, 0x2a, 0xe0, 0xba, 0xbb, 0x7b, 0xab,
   0x02, 0x54, 0x10, 0xee, 0xee, 0x6e, 0x57, 0x01, 0x2a, 0x00, 0x00, 0x00,
   0x00, 0xab, 0x02, 0x54, 0x00, 0x00, 0x00, 0x00, 0x57, 0x01, 0x2a, 0x00,
   0x00, 0x00, 0x00, 0xab, 0x02, 0x54, 0xff, 0xff, 0xff, 0xff, 0x57, 0x01,
   0xaa, 0xfe, 0xff, 0xff, 0xff, 0xab, 0x02, 0x54, 0x55, 0x55, 0x55, 0x55,
   0x55, 0x01, 0x00, 0x00, 0x00, 0x00, 0x00, 0x00, 0x00, 0x00, 0x00, 0x00,
   0x00, 0x00, 0x00, 0x00};
